<svg height="107.999999pt" viewBox="0 0 365.25 107.999999" width="365.25pt" xmlns="http://www.w3.org/2000/svg" xmlns:xlink="http://www.w3.org/1999/xlink"><clipPath id="a"><path d="m0 .109375h107.777344v107.777344h-107.777344zm0 0"/></clipPath><symbol id="b" overflow="visible"><path d="m24.460938-25.242188c-1.332032-1.332031-3.167969-2.15625-5.207032-2.15625h-17.257812v27.398438h4.890625v-12.601562h13.113281v-.039063h.234375c.742187-.078125 1.449219-.273437 2.113281-.589844 2.542969-1.171875 4.304688-3.753906 4.304688-6.730469 0-2.035156-.820313-3.875-2.152344-5.203124zm-4.148438 7.589844c-.3125.15625-.664062.234375-1.015625.234375h-12.410156v-5.046875h12.410156c.859375 0 1.445313.390625 1.757813.703125.277343.273438.746093.902344.746093 1.800781 0 .980469-.589843 1.878907-1.488281 2.269532zm0 0"/></symbol><symbol id="c" overflow="visible"><path d="m14.675781-27.398438c-7.550781 0-13.699219 6.148438-13.699219 13.699219 0 7.554688 6.148438 13.699219 13.699219 13.699219 7.554688 0 13.699219-6.144531 13.699219-13.699219 0-7.550781-6.144531-13.699219-13.699219-13.699219zm0 22.507813c-4.851562 0-8.804687-3.953125-8.804687-8.808594 0-4.851562 3.953125-8.804687 8.804687-8.804687 4.855469 0 8.808594 3.953125 8.808594 8.804687 0 4.855469-3.953125 8.808594-8.808594 8.808594zm0 0"/></symbol><symbol id="d" overflow="visible"><path d="m36.320312-27.398438h-5.089843l-4.929688 16.519532-4.148437-5.753906-.78125-1.097657-2.234375-3.050781-2.230469 3.050781-.78125 1.097657-4.148438 5.753906-4.933593-16.519532h-5.085938l6.378907 21.488282 1.761718 5.8710935 3.601563-4.9687495 5.398437-7.476563 5.441406 7.476563 3.601563 5.007812 1.761719-5.910156zm0 0"/></symbol><symbol id="e" overflow="visible"><path d="m9.355469-22.503906h19.996093v-4.894532h-19.996093c-4.070313 0-7.359375 3.328126-7.359375 7.398438v12.601562c0 4.070313 3.289062 7.398438 7.359375 7.398438h19.996093v-4.890625h-19.996093c-1.371094 0-2.507813-1.136719-2.507813-2.507813v-5.164062h17.613282v-4.894531h-17.613282v-2.542969c0-1.371094 1.136719-2.503906 2.507813-2.503906zm0 0"/></symbol><symbol id="f" overflow="visible"><path d="m20.15625-12.640625c.742188-.078125 1.449219-.273437 2.113281-.589844 2.542969-1.171875 4.304688-3.753906 4.304688-6.730469 0-2.035156-.820313-3.875-2.152344-5.242187-1.332031-1.332031-3.171875-2.152344-5.207031-2.152344h-17.296875v27.3945315h4.890625v-12.6015625h4.894531c1.761719 0 3.285156.9375 4.148437 2.347656l.117188.234375 2.621094 5.128907 2.503906 4.8906245h5.480469l-2.503907-4.8906245zm-13.347656-4.777344v-5.046875h12.40625c.863281 0 1.449218.390625 1.761718.703125.273438.273438.746094.902344.746094 1.800781 0 .980469-.589844 1.878907-1.488281 2.269532-.3125.15625-.664063.234375-1.019531.234375zm0 0"/></symbol><symbol id="g" overflow="visible"><path d="m24.460938-27.398438v9.941407h-17.613282v-9.941407h-4.890625v27.398438h4.890625v-12.5625h17.613282v12.5625h4.890624v-27.398438zm0 0"/></symbol><symbol id="h" overflow="visible"><path d="m24.460938-27.398438v13.699219c0 4.855469-3.953126 8.808594-8.804688 8.808594-4.855469 0-8.808594-3.953125-8.808594-8.808594v-13.699219h-4.890625v13.699219c0 7.554688 6.144531 13.699219 13.699219 13.699219 7.550781 0 13.695312-6.144531 13.695312-13.699219v-13.699219zm0 0"/></symbol><symbol id="i" overflow="visible"><path d="m25.441406-16.007812c.742188-1.132813 1.171875-2.503907 1.171875-3.992188 0-4.070312-3.328125-7.398438-7.398437-7.398438h-17.257813v27.398438h18.667969c4.816406 0 8.726562-3.914062 8.726562-8.726562 0-3.054688-1.5625-5.714844-3.910156-7.28125zm-18.59375-6.496094h12.40625c1.371094 0 2.507813 1.132812 2.507813 2.503906s-1.136719 2.503906-2.507813 2.503906h-12.40625zm13.777344 17.613281h-13.777344v-7.710937h13.777344c2.113281 0 3.835938 1.722656 3.835938 3.835937s-1.722657 3.835937-3.835938 3.835937zm0 0"/></symbol><g clip-path="url(#a)"><path d="m53.890625.109375c29.761719 0 53.886719 24.128906 53.886719 53.890625s-24.125 53.890625-53.886719 53.890625-53.890625-24.128906-53.890625-53.890625 24.128906-53.890625 53.890625-53.890625" fill="#6271dd" fill-rule="evenodd"/></g><path d="m23.253906 47.234375 62.824219-38.503906h-.003906c.671875-.410157 1.546875-.203125 1.957031.46875.324219.527343.257812 1.1875-.113281 1.640625l-25.941407 34.710937 22.585938 12.714844h.003906c.683594.386719.925782 1.253906.539063 1.9375-.140625.25-.34375.441406-.582031.5625l-62.820313 38.503906c-.667969.410157-1.542969.203125-1.953125-.46875-.324219-.527343-.261719-1.1875.109375-1.640625l25.941406-34.710937-22.585937-12.714844.695312-1.238281-.699218 1.238281c-.683594-.386719-.925782-1.253906-.539063-1.9375.140625-.25.34375-.441406.582031-.5625zm58-32.21875-54.542968 33.425781 21.824218 12.289063c.078125.039062.152344.082031.222656.136719.628907.46875.757813 1.359374.285157 1.988281l-22.519531 30.132812 54.546874-33.429687-21.828124-12.289063c-.074219-.039062-.148438-.085937-.222657-.136719-.625-.46875-.753906-1.359374-.285156-1.988281z" fill="#fff"/><g fill="#6271dd"><path d="m48.757812 60.867188c.628907.46875.757813 1.359374.285157 1.988281l-22.519531 30.132812 54.546874-33.429687-21.828124-12.289063c-.074219-.039062-.148438-.085937-.222657-.136719-.625-.46875-.753906-1.359374-.285156-1.988281l22.519531-30.128906-54.542968 33.425781 21.824218 12.289063c.078125.039062.152344.082031.222656.136719" fill-rule="evenodd"/><path d="m81.070312 59.558594-21.828124-12.289063c-.074219-.039062-.148438-.085937-.222657-.136719-.625-.46875-.753906-1.359374-.285156-1.988281l22.519531-30.128906-6.101562 3.738281-21.464844 28.722656 22.519531 12.71875.066407-.003906c.6875.386719.929687 1.253906.542968 1.933594-.011718.023438-.023437.042969-.035156.0625z" fill-rule="evenodd"/><use x="115.474406" xlink:href="#b" y="63.6331"/><use x="144.04252" xlink:href="#c" y="63.6331"/><use x="173.393331" xlink:href="#d" y="63.6331"/><use x="211.66678" xlink:href="#e" y="63.6331"/><use x="242.974314" xlink:href="#f" y="63.6331"/><use x="271.542428" xlink:href="#g" y="63.6331"/><use x="302.849962" xlink:href="#h" y="63.6331"/><use x="334.157497" xlink:href="#i" y="63.6331"/></g></svg>