<?xml version="1.0" encoding="UTF-8"?>
<svg xmlns="http://www.w3.org/2000/svg" xmlns:xlink="http://www.w3.org/1999/xlink" width="384pt" height="383.999986pt" viewBox="0 0 384 383.999986" version="1.2">
<g id="surface1">
<rect x="0" y="0" width="384" height="383.999986" style="fill:rgb(100%,100%,100%);fill-opacity:1;stroke:none;"/>
<rect x="0" y="0" width="384" height="383.999986" style="fill:rgb(100%,100%,100%);fill-opacity:1;stroke:none;"/>
<rect x="0" y="0" width="384" height="383.999986" style="fill:rgb(100%,100%,100%);fill-opacity:1;stroke:none;"/>
<path style=" stroke:none;fill-rule:evenodd;fill:rgb(38.42926%,44.309998%,86.669922%);fill-opacity:1;" d="M 192 0 C 298.039062 0 384 85.960938 384 192 C 384 298.039062 298.039062 384 192 384 C 85.960938 384 0 298.039062 0 192 C 0 85.960938 85.960938 0 192 0 "/>
<path style=" stroke:none;fill-rule:nonzero;fill:rgb(100%,99.609375%,99.609375%);fill-opacity:1;" d="M 82.851562 167.894531 L 306.679688 30.71875 L 306.671875 30.707031 C 309.058594 29.246094 312.175781 29.992188 313.636719 32.375 C 314.792969 34.265625 314.566406 36.609375 313.238281 38.230469 L 220.816406 161.894531 L 301.289062 207.203125 L 301.296875 207.203125 C 303.734375 208.574219 304.597656 211.660156 303.222656 214.097656 C 302.722656 214.988281 301.996094 215.667969 301.152344 216.105469 L 77.320312 353.28125 L 77.328125 353.292969 C 74.941406 354.753906 71.824219 354.007812 70.363281 351.621094 C 69.207031 349.734375 69.433594 347.390625 70.761719 345.769531 L 163.183594 222.105469 L 82.714844 176.796875 L 85.1875 172.386719 L 82.703125 176.800781 C 80.265625 175.425781 79.402344 172.339844 80.777344 169.902344 C 81.277344 169.011719 82.003906 168.332031 82.851562 167.894531 Z M 289.496094 53.097656 L 95.160156 172.199219 L 172.921875 215.980469 C 173.195312 216.117188 173.460938 216.277344 173.714844 216.464844 C 175.953125 218.140625 176.414062 221.316406 174.738281 223.554688 L 174.734375 223.550781 L 94.503906 330.902344 L 288.839844 211.804688 L 211.078125 168.019531 C 210.804688 167.882812 210.539062 167.71875 210.285156 167.535156 C 208.046875 165.859375 207.589844 162.683594 209.261719 160.445312 L 209.265625 160.445312 L 289.496094 53.097656 "/>
<path style=" stroke:none;fill-rule:evenodd;fill:rgb(38.42926%,44.309998%,86.669922%);fill-opacity:1;" d="M 173.714844 216.464844 C 175.953125 218.140625 176.414062 221.316406 174.738281 223.554688 L 174.734375 223.550781 L 94.503906 330.902344 L 288.839844 211.804688 L 211.078125 168.019531 C 210.804688 167.882812 210.539062 167.71875 210.285156 167.535156 C 208.046875 165.859375 207.589844 162.683594 209.261719 160.445312 L 209.265625 160.445312 L 289.496094 53.097656 L 95.160156 172.199219 L 172.921875 215.980469 C 173.195312 216.117188 173.460938 216.277344 173.714844 216.464844 "/>
<path style=" stroke:none;fill-rule:evenodd;fill:rgb(38.42926%,44.309998%,86.669922%);fill-opacity:1;" d="M 288.839844 211.804688 L 211.078125 168.019531 C 210.804688 167.882812 210.539062 167.71875 210.285156 167.535156 C 208.046875 165.859375 207.589844 162.683594 209.261719 160.445312 L 209.265625 160.445312 L 289.496094 53.097656 L 267.757812 66.421875 L 191.277344 168.753906 L 271.515625 214.078125 L 271.757812 214.058594 C 274.195312 215.433594 275.058594 218.519531 273.6875 220.953125 C 273.648438 221.027344 273.605469 221.09375 273.5625 221.164062 L 288.839844 211.804688 "/>
</g>
</svg>
